<?xml version="1.0" encoding="UTF-8" standalone="no" ?>
<!DOCTYPE svg PUBLIC "-//W3C//DTD SVG 1.1//EN" "http://www.w3.org/Graphics/SVG/1.1/DTD/svg11.dtd">
<svg xmlns="http://www.w3.org/2000/svg" xmlns:xlink="http://www.w3.org/1999/xlink" version="1.1" width="80" height="80" viewBox="0 0 80 80" xml:space="preserve">
<desc>Created with Fabric.js 4.6.0</desc>
<defs>
</defs>
<g transform="matrix(1 0 0 1 40 40)" id="s85Uh4qHdbfTNQw0080if"  >
<g style="" vector-effect="non-scaling-stroke"   >
		<g transform="matrix(1 0 0 1 -0.33 -19.52)" id="1z_A21Cc3qC1HAz28c9eO" clip-path="url(#CLIPPATH_50)"  >
<clipPath id="CLIPPATH_50" >
	<rect transform="matrix(1 0 0 1 0.33 19.52)" id="clip0_2_255" x="-40" y="-40" rx="0" ry="0" width="80" height="80" />
</clipPath>
<path style="stroke: none; stroke-width: 1; stroke-dasharray: none; stroke-linecap: butt; stroke-dashoffset: 0; stroke-linejoin: miter; stroke-miterlimit: 4; fill: rgb(226,162,59); fill-rule: nonzero; opacity: 1;" vector-effect="non-scaling-stroke"  transform=" translate(-39.67, -20.48)" d="M 44.9304 22.1782 C 45.2485 18.297 41.3519 16.3168 42.9423 11.4059 C 45.0895 4.51485 40.2386 0 40.2386 0 C 40.2386 0 42.4652 2.37624 39.1252 8.39604 C 36.8986 12.3564 37.5348 16.0792 37.5348 20.6733 C 37.6143 25.2673 32.1272 27.1683 33.8767 34.0594 L 39.3638 40.9505 L 45.8052 34.0594 C 42.6242 27.4059 44.6123 26.0594 44.9304 22.1782 Z M 34.9105 33.505 C 34.1153 30.0198 35.3877 28.1188 36.66 26.0594 C 37.6938 24.4753 38.7276 22.8119 38.6481 20.5941 C 38.6481 19.802 38.6481 19.0099 38.5686 18.297 C 38.4891 14.7327 38.33 11.9604 40.0795 8.9505 C 40.9543 7.36634 41.5109 5.9406 41.7495 4.75248 C 42.3062 6.41584 42.5447 8.55446 41.7495 11.0891 C 40.7157 14.3366 41.7495 16.4753 42.7038 18.3762 C 43.34 19.6436 43.8171 20.7525 43.7376 22.099 C 43.7376 22.9703 43.499 23.8416 43.34 24.5545 C 42.7833 26.8515 42.3062 29.0693 44.4533 33.8218 L 39.4433 39.1287 L 34.9105 33.505 Z" stroke-linecap="round" />
</g>
		<g transform="matrix(1 0 0 1 1.54 -17.98)" id="Ul3iqr6MNpz3GRE6FbDMU" clip-path="url(#CLIPPATH_51)"  >
<clipPath id="CLIPPATH_51" >
	<rect transform="matrix(1 0 0 1 -1.54 17.98)" id="clip0_2_255" x="-40" y="-40" rx="0" ry="0" width="80" height="80" />
</clipPath>
<path style="stroke: none; stroke-width: 1; stroke-dasharray: none; stroke-linecap: butt; stroke-dashoffset: 0; stroke-linejoin: miter; stroke-miterlimit: 4; fill: rgb(226,162,59); fill-rule: nonzero; opacity: 1;" vector-effect="non-scaling-stroke"  transform=" translate(-41.54, -22.02)" d="M 43.4194 24.5544 C 43.5785 23.7623 43.817 22.9703 43.8965 22.099 C 43.9761 20.7524 43.4989 19.6435 42.8628 18.3762 C 41.988 16.4752 40.9542 14.3366 41.9085 11.0891 C 42.7037 8.63363 42.4651 6.49502 41.9085 4.75244 C 42.7037 8.95046 39.2047 10.4554 40.6361 16.7128 C 42.3856 24 36.3419 28.9109 39.4433 39.2871 L 44.5327 33.901 C 42.4651 29.2277 42.8627 26.8515 43.4194 24.5544 Z" stroke-linecap="round" />
</g>
		<g transform="matrix(1 0 0 1 19.52 -0.17)" id="9Tuz1CBqs8i30_PZcK6xT" clip-path="url(#CLIPPATH_52)"  >
<clipPath id="CLIPPATH_52" >
	<rect transform="matrix(1 0 0 1 -19.52 0.17)" id="clip0_2_255" x="-40" y="-40" rx="0" ry="0" width="80" height="80" />
</clipPath>
<path style="stroke: none; stroke-width: 1; stroke-dasharray: none; stroke-linecap: butt; stroke-dashoffset: 0; stroke-linejoin: miter; stroke-miterlimit: 4; fill: rgb(226,162,59); fill-rule: nonzero; opacity: 1;" vector-effect="non-scaling-stroke"  transform=" translate(-59.52, -39.83)" d="M 71.5706 39.2872 C 67.5944 37.0694 63.8569 37.703 59.2445 37.703 C 54.6322 37.7822 52.7236 32.3169 45.8052 34.0594 L 38.9662 39.5248 L 45.8847 45.9406 C 52.4851 42.7723 53.9165 44.7525 57.8131 45.0694 C 61.7097 45.3862 63.6978 41.505 68.6282 43.0892 C 75.4672 45.2278 80.0795 40.3961 80.0795 40.3961 C 80.0795 40.3961 77.6143 42.6139 71.5706 39.2872 Z M 68.9463 41.9802 C 65.6859 40.9505 63.5388 41.9802 61.6302 42.9307 C 60.3578 43.5644 59.2445 44.0397 57.8926 43.9604 C 56.9384 43.8812 56.1431 43.7228 55.4274 43.4852 C 53.1213 42.9307 50.8946 42.4555 46.1232 44.5941 L 40.6362 39.604 L 46.2823 35.0892 C 49.7813 34.2971 51.6898 35.5644 53.7574 36.8317 C 55.3479 37.8614 57.0179 38.8911 59.2445 38.8119 C 60.0398 38.8119 60.835 38.8119 61.5507 38.7327 C 65.1292 38.6535 67.9125 38.4951 70.9344 40.2377 C 72.5248 41.109 73.9563 41.6634 75.1491 41.901 C 73.5586 42.4555 71.4115 42.6931 68.9463 41.9802 Z" stroke-linecap="round" />
</g>
		<g transform="matrix(1 0 0 1 17.93 1.67)" id="oGMSrtMFDOJzHuEOwGQfi" clip-path="url(#CLIPPATH_53)"  >
<clipPath id="CLIPPATH_53" >
	<rect transform="matrix(1 0 0 1 -17.93 -1.67)" id="clip0_2_255" x="-40" y="-40" rx="0" ry="0" width="80" height="80" />
</clipPath>
<path style="stroke: none; stroke-width: 1; stroke-dasharray: none; stroke-linecap: butt; stroke-dashoffset: 0; stroke-linejoin: miter; stroke-miterlimit: 4; fill: rgb(226,162,59); fill-rule: nonzero; opacity: 1;" vector-effect="non-scaling-stroke"  transform=" translate(-57.93, -41.67)" d="M 55.3479 43.4853 C 56.1431 43.6437 56.9384 43.8813 57.8131 43.9605 C 59.165 44.0398 60.2783 43.5645 61.5507 42.9308 C 63.4592 42.0596 65.6063 41.0299 68.8668 41.9803 C 71.332 42.7724 73.4791 42.5348 75.2286 41.9803 C 71.0139 42.7724 69.503 39.2873 63.2207 40.713 C 55.9046 42.5348 50.9741 36.4358 40.6362 39.6041 L 46.0437 44.6734 C 50.6561 42.5348 53.0417 42.9308 55.3479 43.4853 Z" stroke-linecap="round" />
</g>
		<g transform="matrix(1 0 0 1 -0.08 19.52)" id="nGLLLoINohIGvKUluFplF" clip-path="url(#CLIPPATH_54)"  >
<clipPath id="CLIPPATH_54" >
	<rect transform="matrix(1 0 0 1 0.08 -19.52)" id="clip0_2_255" x="-40" y="-40" rx="0" ry="0" width="80" height="80" />
</clipPath>
<path style="stroke: none; stroke-width: 1; stroke-dasharray: none; stroke-linecap: butt; stroke-dashoffset: 0; stroke-linejoin: miter; stroke-miterlimit: 4; fill: rgb(226,162,59); fill-rule: nonzero; opacity: 1;" vector-effect="non-scaling-stroke"  transform=" translate(-39.92, -59.52)" d="M 45.7257 45.9407 L 40.2386 39.0496 L 33.7972 45.9407 C 36.9782 52.5149 34.9901 53.9407 34.672 57.8218 C 34.3539 61.703 38.2505 63.6832 36.6601 68.5941 C 34.5129 75.406 39.3638 80.0001 39.3638 80.0001 C 39.3638 80.0001 37.1372 77.6238 40.4772 71.604 C 42.7038 67.6436 42.0676 63.9209 42.0676 59.3268 C 41.9881 54.7327 47.3957 52.8317 45.7257 45.9407 Z M 39.4434 71.0496 C 38.5686 72.6337 38.012 74.0595 37.7734 75.2476 C 37.2167 73.5842 36.9782 71.4456 37.7734 68.911 C 38.8072 65.6634 37.7734 63.5248 36.8191 61.6238 C 36.1829 60.3565 35.7058 59.2476 35.7853 57.901 C 35.8648 56.9506 36.0239 56.1585 36.2625 55.4456 C 36.8191 53.1486 37.2963 50.9308 35.1491 46.1783 L 40.1591 40.8713 L 44.6919 46.4951 C 45.4871 49.9803 44.2147 51.8812 42.9424 53.9407 C 41.9086 55.5248 40.8748 57.1882 40.9543 59.406 C 40.9543 60.1981 40.9543 60.9902 41.0338 61.703 C 41.0338 65.1882 41.1929 68.0397 39.4434 71.0496 Z" stroke-linecap="round" />
</g>
		<g transform="matrix(1 0 0 1 -1.94 17.9)" id="4YJYWdIOBFfEoSWO-847U" clip-path="url(#CLIPPATH_55)"  >
<clipPath id="CLIPPATH_55" >
	<rect transform="matrix(1 0 0 1 1.94 -17.9)" id="clip0_2_255" x="-40" y="-40" rx="0" ry="0" width="80" height="80" />
</clipPath>
<path style="stroke: none; stroke-width: 1; stroke-dasharray: none; stroke-linecap: butt; stroke-dashoffset: 0; stroke-linejoin: miter; stroke-miterlimit: 4; fill: rgb(226,162,59); fill-rule: nonzero; opacity: 1;" vector-effect="non-scaling-stroke"  transform=" translate(-38.06, -57.9)" d="M 36.183 55.3665 C 36.0239 56.1585 35.7853 56.9506 35.7058 57.8219 C 35.6263 59.1684 36.1034 60.2773 36.7396 61.5447 C 37.6144 63.4457 38.6482 65.5843 37.6939 68.8318 C 36.8987 71.2873 37.1372 73.4259 37.6939 75.1684 C 36.8987 70.9704 40.3977 69.4655 38.9663 63.208 C 37.2168 55.9209 43.2605 51.01 40.1591 40.6338 L 35.0696 46.0199 C 37.1372 50.7724 36.7396 53.0694 36.183 55.3665 Z" stroke-linecap="round" />
</g>
		<g transform="matrix(1 0 0 1 -19.44 -0.15)" id="A5il5vL_iwpNHhBGsTBVF" clip-path="url(#CLIPPATH_56)"  >
<clipPath id="CLIPPATH_56" >
	<rect transform="matrix(1 0 0 1 19.44 0.15)" id="clip0_2_255" x="-40" y="-40" rx="0" ry="0" width="80" height="80" />
</clipPath>
<path style="stroke: none; stroke-width: 1; stroke-dasharray: none; stroke-linecap: butt; stroke-dashoffset: 0; stroke-linejoin: miter; stroke-miterlimit: 4; fill: rgb(226,162,59); fill-rule: nonzero; opacity: 1;" vector-effect="non-scaling-stroke"  transform=" translate(-20.56, -39.85)" d="M 34.1948 33.7427 C 27.5944 36.911 26.163 34.9308 22.2664 34.614 C 18.3698 34.2971 16.3817 38.1783 11.4513 36.5942 C 4.5328 34.4555 0 39.2872 0 39.2872 C 0 39.2872 2.38569 37.0694 8.42942 40.3961 C 12.4056 42.614 16.1431 41.9803 20.7555 41.9803 C 25.3678 41.9011 27.2763 47.3664 34.1948 45.6239 L 41.1133 40.1585 L 34.1948 33.7427 Z M 33.6382 44.515 C 30.1392 45.307 28.2306 44.0397 26.163 42.7724 C 24.5726 41.7427 22.9026 40.713 20.6759 40.7922 C 19.8807 40.7922 19.0855 40.7922 18.3698 40.8714 C 14.7913 40.9506 12.008 41.109 8.98608 39.3664 C 7.39563 38.4952 5.96421 37.9407 4.77137 37.7031 C 6.44135 37.1486 8.58847 36.911 11.1332 37.7031 C 14.3936 38.7328 16.5408 37.7031 18.4493 36.7526 C 19.7217 36.1189 20.835 35.6437 22.1869 35.7229 C 23.1412 35.8021 23.9364 35.9605 24.6521 36.1981 C 26.9583 36.7526 29.1849 37.2278 33.9563 35.0892 L 39.2843 40.0793 L 33.6382 44.515 Z" stroke-linecap="round" />
</g>
		<g transform="matrix(1 0 0 1 -17.89 -2.01)" id="Oeff5SGx5spH5-qUf3Ahu" clip-path="url(#CLIPPATH_57)"  >
<clipPath id="CLIPPATH_57" >
	<rect transform="matrix(1 0 0 1 17.89 2.01)" id="clip0_2_255" x="-40" y="-40" rx="0" ry="0" width="80" height="80" />
</clipPath>
<path style="stroke: none; stroke-width: 1; stroke-dasharray: none; stroke-linecap: butt; stroke-dashoffset: 0; stroke-linejoin: miter; stroke-miterlimit: 4; fill: rgb(226,162,59); fill-rule: nonzero; opacity: 1;" vector-effect="non-scaling-stroke"  transform=" translate(-22.11, -37.99)" d="M 24.6521 36.1189 C 23.8569 35.9605 23.0616 35.7229 22.1869 35.6437 C 20.835 35.5645 19.7217 36.0397 18.4493 36.6734 C 16.5407 37.5447 14.3936 38.5744 11.1332 37.6239 C 8.66798 36.8318 6.52087 37.0694 4.77136 37.6239 C 8.98607 36.8318 10.497 40.3169 16.7793 38.8912 C 24.0954 37.1486 29.0258 43.1684 39.4433 40.0793 L 34.0358 35.01 C 29.3439 37.0694 26.9582 36.6734 24.6521 36.1189 Z" stroke-linecap="round" />
</g>
		<g transform="matrix(1 0 0 1 13.76 -13.94)" id="eWyCjw7jQCfOsddUjMK1G" clip-path="url(#CLIPPATH_58)"  >
<clipPath id="CLIPPATH_58" >
	<rect transform="matrix(1 0 0 1 -13.76 13.94)" id="clip0_2_255" x="-40" y="-40" rx="0" ry="0" width="80" height="80" />
</clipPath>
<path style="stroke: none; stroke-width: 1; stroke-dasharray: none; stroke-linecap: butt; stroke-dashoffset: 0; stroke-linejoin: miter; stroke-miterlimit: 4; fill: rgb(226,162,59); fill-rule: nonzero; opacity: 1;" vector-effect="non-scaling-stroke"  transform=" translate(-53.76, -26.06)" d="M 68.5487 11.8811 C 68.5487 11.8811 68.4692 15.1286 61.8688 17.0296 C 57.495 18.2969 55.2684 21.3068 52.0875 24.6336 C 48.827 27.9603 43.658 25.4257 39.9205 31.5247 L 38.9662 40.2375 L 48.3499 39.9207 C 50.7356 32.9504 53.2008 33.4257 56.1431 30.891 C 59.0855 28.3563 57.8131 24.2375 62.4254 21.8613 C 68.7077 18.4554 68.5487 11.8811 68.5487 11.8811 Z M 61.8688 20.8316 C 58.8469 22.4158 58.0517 24.6336 57.336 26.693 C 56.8588 28.0395 56.4612 29.1484 55.4274 30.0197 C 54.7117 30.6534 53.996 31.0494 53.3598 31.4455 C 51.3718 32.7128 49.3837 33.9009 47.5547 38.8118 L 40.2386 39.0494 L 41.0338 31.9207 C 42.9423 28.9108 45.169 28.4356 47.5547 27.8811 C 49.3837 27.4851 51.2922 27.0098 52.8827 25.4257 C 53.4393 24.8712 53.996 24.3167 54.4731 23.7623 C 56.9384 21.1484 58.8469 19.1682 62.1869 18.1385 C 63.9364 17.6633 65.2883 17.0296 66.3221 16.396 C 65.5268 17.9009 64.1749 19.5643 61.8688 20.8316 Z" stroke-linecap="round" />
</g>
		<g transform="matrix(1 0 0 1 13.24 -12.28)" id="elCe35a1GXGsyg5pZKPWq" clip-path="url(#CLIPPATH_59)"  >
<clipPath id="CLIPPATH_59" >
	<rect transform="matrix(1 0 0 1 -13.24 12.28)" id="clip0_2_255" x="-40" y="-40" rx="0" ry="0" width="80" height="80" />
</clipPath>
<path style="stroke: none; stroke-width: 1; stroke-dasharray: none; stroke-linecap: butt; stroke-dashoffset: 0; stroke-linejoin: miter; stroke-miterlimit: 4; fill: rgb(226,162,59); fill-rule: nonzero; opacity: 1;" vector-effect="non-scaling-stroke"  transform=" translate(-53.24, -27.72)" d="M 53.3598 31.4455 C 53.996 31.0495 54.7117 30.5742 55.4274 30.0198 C 56.4612 29.1485 56.8588 27.9604 57.3359 26.693 C 58.0516 24.7128 58.8469 22.495 61.8687 20.8316 C 64.1749 19.6435 65.5268 17.9802 66.322 16.396 C 63.8568 19.9604 60.3578 18.5346 57.0178 23.9207 C 53.0417 30.3366 45.328 29.5445 40.159 39.0495 L 47.5546 38.8118 C 49.3836 34.0594 51.2922 32.7128 53.3598 31.4455 Z" stroke-linecap="round" />
</g>
		<g transform="matrix(1 0 0 1 13.72 13.66)" id="3OeTnHENoZH5ZkUGbp0_N" clip-path="url(#CLIPPATH_60)"  >
<clipPath id="CLIPPATH_60" >
	<rect transform="matrix(1 0 0 1 -13.72 -13.66)" id="clip0_2_255" x="-40" y="-40" rx="0" ry="0" width="80" height="80" />
</clipPath>
<path style="stroke: none; stroke-width: 1; stroke-dasharray: none; stroke-linecap: butt; stroke-dashoffset: 0; stroke-linejoin: miter; stroke-miterlimit: 4; fill: rgb(226,162,59); fill-rule: nonzero; opacity: 1;" vector-effect="non-scaling-stroke"  transform=" translate(-53.72, -53.66)" d="M 62.823 61.703 C 61.5507 57.3466 58.5288 55.1287 55.1888 51.9604 C 51.8489 48.7129 54.3936 43.5644 48.2703 39.8416 L 39.5228 38.8911 L 39.8409 48.2376 C 46.8389 50.6139 46.3618 53.0693 48.9065 56 C 51.4513 58.9307 55.5865 57.6634 57.9721 62.2574 C 61.3121 68.5941 67.9125 68.4357 67.9125 68.4357 C 67.9125 68.4357 64.7316 68.3565 62.823 61.703 Z M 59.0855 61.703 C 57.495 58.6931 55.2684 57.901 53.2008 57.1881 C 51.8489 56.7129 50.7356 56.3169 49.8608 55.2872 C 49.2246 54.5743 48.827 53.8614 48.4294 53.2277 C 47.157 51.2475 45.9642 49.2674 41.0338 47.4456 L 40.7952 40.1584 L 47.9523 40.9505 C 50.9741 42.8515 51.4513 45.0693 52.0079 47.4456 C 52.4055 49.2674 52.8827 51.1683 54.4731 52.7525 C 55.0298 53.307 55.5865 53.8614 56.1431 54.3367 C 58.7674 56.7921 60.7554 58.6931 61.7892 62.0198 C 62.2664 63.7624 62.9026 65.1089 63.5387 66.1386 C 61.9483 65.4258 60.2783 64.0792 59.0855 61.703 Z" stroke-linecap="round" />
</g>
		<g transform="matrix(1 0 0 1 12.09 13.11)" id="sIpy7U3cr2_HDwKR-F5-P" clip-path="url(#CLIPPATH_61)"  >
<clipPath id="CLIPPATH_61" >
	<rect transform="matrix(1 0 0 1 -12.09 -13.11)" id="clip0_2_255" x="-40" y="-40" rx="0" ry="0" width="80" height="80" />
</clipPath>
<path style="stroke: none; stroke-width: 1; stroke-dasharray: none; stroke-linecap: butt; stroke-dashoffset: 0; stroke-linejoin: miter; stroke-miterlimit: 4; fill: rgb(226,162,59); fill-rule: nonzero; opacity: 1;" vector-effect="non-scaling-stroke"  transform=" translate(-52.09, -53.11)" d="M 48.3498 53.2279 C 48.7474 53.8615 49.2246 54.5744 49.7812 55.2873 C 50.656 56.317 51.8488 56.713 53.1212 57.1883 C 55.1093 57.9011 57.3359 58.6932 59.0059 61.7031 C 60.1987 64.0001 61.8687 65.3467 63.4592 66.1388 C 59.8807 63.6833 61.3121 60.1982 55.9045 56.8714 C 49.4632 52.911 50.2584 45.2279 40.7156 40.0793 L 40.9542 47.4457 C 45.7256 49.3467 47.0775 51.2477 48.3498 53.2279 Z" stroke-linecap="round" />
</g>
		<g transform="matrix(1 0 0 1 -14.08 13.62)" id="1LBCJI3DrDYAudLCtdf6K" clip-path="url(#CLIPPATH_62)"  >
<clipPath id="CLIPPATH_62" >
	<rect transform="matrix(1 0 0 1 14.08 -13.62)" id="clip0_2_255" x="-40" y="-40" rx="0" ry="0" width="80" height="80" />
</clipPath>
<path style="stroke: none; stroke-width: 1; stroke-dasharray: none; stroke-linecap: butt; stroke-dashoffset: 0; stroke-linejoin: miter; stroke-miterlimit: 4; fill: rgb(226,162,59); fill-rule: nonzero; opacity: 1;" vector-effect="non-scaling-stroke"  transform=" translate(-25.92, -53.62)" d="M 31.4116 39.8416 C 29.0259 46.8119 26.5607 46.3366 23.6183 48.8713 C 20.676 51.406 21.9483 55.5248 17.336 57.901 C 10.9742 61.2277 11.1332 67.802 11.1332 67.802 C 11.1332 67.802 11.2128 64.5545 17.8132 62.6535 C 22.1869 61.3861 24.4136 58.3762 27.5945 55.0495 C 30.8549 51.7228 36.0239 54.2574 39.7615 48.1584 L 40.7157 39.4456 L 31.4116 39.8416 Z M 38.7277 47.8416 C 36.8191 50.8515 34.5925 51.3267 32.2068 51.8812 C 30.3778 52.2772 28.4692 52.7525 26.8788 54.3366 C 26.3221 54.8911 25.7654 55.4456 25.2883 56 C 22.8231 58.6139 20.9145 60.5941 17.5746 61.6238 C 15.8251 62.099 14.4732 62.7327 13.4394 63.3663 C 14.2346 61.7822 15.5865 60.1188 17.8927 58.9307 C 20.9145 57.3465 21.7098 55.1287 22.4255 53.0693 C 22.9026 51.7228 23.3002 50.6139 24.334 49.7426 C 25.0497 49.1089 25.7654 48.7129 26.4016 48.3168 C 28.3897 47.0495 30.3778 45.8614 32.2068 40.9505 L 39.5229 40.7129 L 38.7277 47.8416 Z" stroke-linecap="round" />
</g>
		<g transform="matrix(1 0 0 1 -13.48 11.96)" id="uaNUO1O1ekfpQ2FbP3m8d" clip-path="url(#CLIPPATH_63)"  >
<clipPath id="CLIPPATH_63" >
	<rect transform="matrix(1 0 0 1 13.48 -11.96)" id="clip0_2_255" x="-40" y="-40" rx="0" ry="0" width="80" height="80" />
</clipPath>
<path style="stroke: none; stroke-width: 1; stroke-dasharray: none; stroke-linecap: butt; stroke-dashoffset: 0; stroke-linejoin: miter; stroke-miterlimit: 4; fill: rgb(226,162,59); fill-rule: nonzero; opacity: 1;" vector-effect="non-scaling-stroke"  transform=" translate(-26.52, -51.96)" d="M 26.4016 48.2378 C 25.7654 48.6338 25.0497 49.109 24.334 49.6635 C 23.3002 50.5348 22.9026 51.7229 22.4254 52.9902 C 21.7097 54.9704 20.9145 57.1883 17.8926 58.8516 C 15.5864 60.0397 14.2346 61.7031 13.4393 63.2873 C 15.9045 59.7229 19.4035 61.1487 22.7435 55.7625 C 26.7196 49.3467 34.4334 50.1387 39.6024 40.6338 L 32.2067 40.8714 C 30.3777 45.6239 28.3896 46.9704 26.4016 48.2378 Z" stroke-linecap="round" />
</g>
		<g transform="matrix(1 0 0 1 -13.52 -14.02)" id="yCZg3vbhRmEebRghGpraI" clip-path="url(#CLIPPATH_64)"  >
<clipPath id="CLIPPATH_64" >
	<rect transform="matrix(1 0 0 1 13.52 14.02)" id="clip0_2_255" x="-40" y="-40" rx="0" ry="0" width="80" height="80" />
</clipPath>
<path style="stroke: none; stroke-width: 1; stroke-dasharray: none; stroke-linecap: butt; stroke-dashoffset: 0; stroke-linejoin: miter; stroke-miterlimit: 4; fill: rgb(226,162,59); fill-rule: nonzero; opacity: 1;" vector-effect="non-scaling-stroke"  transform=" translate(-26.48, -25.98)" d="M 40.3181 31.4455 C 33.3201 29.0692 33.7972 26.6138 31.2525 23.6831 C 28.7078 20.7524 24.5726 22.0197 22.1869 17.4256 C 18.8469 11.089 12.2465 11.2474 12.2465 11.2474 C 12.2465 11.2474 15.507 11.3266 17.4155 17.9009 C 18.6879 22.2573 21.7097 24.4752 25.0497 27.6435 C 28.3897 30.891 25.8449 36.0395 31.9682 39.7623 L 40.7157 40.7128 L 40.3181 31.4455 Z M 32.2863 38.7326 C 29.2644 36.8316 28.7873 34.6138 28.2306 32.2375 C 27.833 30.4157 27.3559 28.5148 25.7654 26.9306 C 25.2087 26.3761 24.6521 25.8217 24.0954 25.3464 C 21.4712 22.891 19.4831 20.99 18.4493 17.6633 C 17.9722 15.9207 17.336 14.5742 16.6998 13.5445 C 18.2903 14.3365 19.9602 15.6831 21.1531 17.9801 C 22.7435 20.99 24.9702 21.7821 27.0378 22.495 C 28.3897 22.9702 29.503 23.3662 30.3777 24.3959 C 31.0139 25.1088 31.4115 25.8217 31.8091 26.4554 C 33.0815 28.4356 34.2744 30.4157 39.2048 32.2375 L 39.4433 39.5247 L 32.2863 38.7326 Z" stroke-linecap="round" />
</g>
		<g transform="matrix(1 0 0 1 -11.85 -13.43)" id="PB3sa_vmQOC9nVXUuT8y9" clip-path="url(#CLIPPATH_65)"  >
<clipPath id="CLIPPATH_65" >
	<rect transform="matrix(1 0 0 1 11.85 13.43)" id="clip0_2_255" x="-40" y="-40" rx="0" ry="0" width="80" height="80" />
</clipPath>
<path style="stroke: none; stroke-width: 1; stroke-dasharray: none; stroke-linecap: butt; stroke-dashoffset: 0; stroke-linejoin: miter; stroke-miterlimit: 4; fill: rgb(226,162,59); fill-rule: nonzero; opacity: 1;" vector-effect="non-scaling-stroke"  transform=" translate(-28.15, -26.57)" d="M 31.8887 26.4553 C 31.4911 25.8217 31.014 25.1088 30.4573 24.3959 C 29.5825 23.3662 28.3897 22.9702 27.1173 22.4949 C 25.1293 21.7821 22.9026 20.99 21.2326 17.9801 C 20.0398 15.683 18.3698 14.3365 16.7794 13.5444 C 20.3579 15.9999 18.9265 19.485 24.334 22.8118 C 30.7754 26.7722 29.9802 34.4553 39.5229 39.6038 L 39.2843 32.2375 C 34.513 30.4157 33.1611 28.4355 31.8887 26.4553 Z" stroke-linecap="round" />
</g>
</g>
</g>
<g transform="matrix(-0.89 0 0 0.16 40.61 42.33)" id="aRK-6c0_eX7tnY4drAnnb"  >
<path style="stroke: rgb(226,162,59); stroke-width: 1; stroke-dasharray: none; stroke-linecap: butt; stroke-dashoffset: 0; stroke-linejoin: miter; stroke-miterlimit: 4; fill: rgb(0,0,0); fill-rule: nonzero; opacity: 1;" vector-effect="non-scaling-stroke"  transform=" translate(0, 0)" d="M -7.29989 -7.29989 L 7.29989 -7.29989 L 7.29989 7.29989 L -7.29989 7.29989 z" stroke-linecap="round" />
</g>
<g transform="matrix(-0.89 0 0 0.16 40.67 38.99)" id="HlvTIk9IW9bUJ6e3YzdJa"  >
<path style="stroke: rgb(226,162,59); stroke-width: 1; stroke-dasharray: none; stroke-linecap: butt; stroke-dashoffset: 0; stroke-linejoin: miter; stroke-miterlimit: 4; fill: rgb(0,0,0); fill-rule: nonzero; opacity: 1;" vector-effect="non-scaling-stroke"  transform=" translate(0, 0)" d="M -7.29989 -7.29989 L 7.29989 -7.29989 L 7.29989 7.29989 L -7.29989 7.29989 z" stroke-linecap="round" />
</g>
<g transform="matrix(-0.89 0 0 0.16 40.64 35.39)" id="4sPdAdpTEeDMM46sm1YYL"  >
<path style="stroke: rgb(226,162,59); stroke-width: 1; stroke-dasharray: none; stroke-linecap: butt; stroke-dashoffset: 0; stroke-linejoin: miter; stroke-miterlimit: 4; fill: rgb(0,0,0); fill-rule: nonzero; opacity: 1;" vector-effect="non-scaling-stroke"  transform=" translate(0, 0)" d="M -7.29989 -7.29989 L 7.29989 -7.29989 L 7.29989 7.29989 L -7.29989 7.29989 z" stroke-linecap="round" />
</g>
</svg>